<svg width="1584" height="396" viewBox="0 0 1584 396" fill="none" xmlns="http://www.w3.org/2000/svg">
<rect width="1584" height="396" fill="#F5F5F5"/>
<g id="Awesome banner" clip-path="url(#clip0_0_1)">
<rect width="1584" height="396" fill="url(#paint0_linear_0_1)"/>
<ellipse id="Ellipse 2" cx="323" cy="64" rx="285" ry="288" fill="url(#paint1_linear_0_1)" fill-opacity="0.1"/>
<g id="copyright">
<path d="M75.95 334.52L72.30 334.52L72.30 311.16L77.20 311.16L83.70 330.04Q83.60 329.02 83.50 327.62Q83.41 326.23 83.33 324.79Q83.25 323.35 83.25 322.23L83.25 311.16L86.90 311.16L86.90 334.52L82 334.52L75.57 315.64Q75.63 316.57 75.73 317.88Q75.82 319.19 75.89 320.57Q75.95 321.94 75.95 323.10L75.95 334.52M98.80 334.84Q96.46 334.84 94.67 333.96Q92.88 333.08 91.89 331.53Q90.90 329.98 90.90 327.93Q90.90 325.78 92.13 324.18Q93.36 322.58 95.34 322.17L95.34 322.10Q93.65 321.75 92.61 320.38Q91.57 319 91.57 317.11Q91.57 315.26 92.48 313.85Q93.39 312.44 95.02 311.64Q96.66 310.84 98.80 310.84Q100.94 310.84 102.59 311.64Q104.24 312.44 105.15 313.85Q106.06 315.26 106.06 317.11Q106.06 319 105.01 320.38Q103.95 321.75 102.26 322.10L102.26 322.17Q104.24 322.58 105.47 324.18Q106.70 325.78 106.70 327.93Q106.70 329.98 105.71 331.53Q104.72 333.08 102.93 333.96Q101.14 334.84 98.80 334.84M98.80 320.73Q100.30 320.73 101.23 319.82Q102.16 318.90 102.16 317.46Q102.16 315.99 101.23 315.08Q100.30 314.17 98.80 314.17Q97.30 314.17 96.37 315.08Q95.44 315.99 95.44 317.46Q95.44 318.90 96.37 319.82Q97.30 320.73 98.80 320.73M98.80 331.45Q100.56 331.45 101.68 330.42Q102.80 329.40 102.80 327.74Q102.80 326.04 101.68 325Q100.56 323.96 98.80 323.96Q97.04 323.96 95.92 325Q94.80 326.04 94.80 327.74Q94.80 329.40 95.92 330.42Q97.04 331.45 98.80 331.45M114.35 334.52L110.70 334.52L110.70 311.16L115.60 311.16L122.10 330.04Q122 329.02 121.90 327.62Q121.81 326.23 121.73 324.79Q121.65 323.35 121.65 322.23L121.65 311.16L125.30 311.16L125.30 334.52L120.40 334.52L113.97 315.64Q114.03 316.57 114.13 317.88Q114.22 319.19 114.29 320.57Q114.35 321.94 114.35 323.10" fill="white" fill-opacity="0.9"/>
<path d="M161.48 325.24L151.24 325.24L151.24 322.68L161.48 322.68" fill="white" fill-opacity="0.9"/>
<path d="M195.02 334.84Q191.82 334.84 189.96 333.05Q188.11 331.26 188.11 328.12L188.11 317.56Q188.11 314.42 189.96 312.63Q191.82 310.84 195.02 310.84Q198.15 310.84 200.01 312.65Q201.87 314.46 201.87 317.56L198.99 317.56Q198.99 315.58 197.95 314.50Q196.91 313.43 195.02 313.43Q193.13 313.43 192.06 314.50Q190.99 315.58 190.99 317.56L190.99 328.12Q190.99 330.10 192.06 331.18Q193.13 332.25 195.02 332.25Q196.91 332.25 197.95 331.18Q198.99 330.10 198.99 328.12L201.87 328.12Q201.87 331.22 200.01 333.03Q198.15 334.84 195.02 334.84" fill="white" fill-opacity="0.9"/>
<path d="M213.96 334.84Q210.83 334.84 209 333.02Q207.18 331.19 207.18 327.80L207.18 317.88Q207.18 314.49 209 312.66Q210.83 310.84 213.96 310.84Q217.10 310.84 218.92 312.66Q220.75 314.49 220.75 317.85L220.75 327.80Q220.75 331.19 218.92 333.02Q217.10 334.84 213.96 334.84M213.96 332.25Q215.85 332.25 216.86 331.18Q217.87 330.10 217.87 328.12L217.87 317.56Q217.87 315.58 216.86 314.50Q215.85 313.43 213.96 313.43Q212.11 313.43 211.08 314.50Q210.06 315.58 210.06 317.56L210.06 328.12Q210.06 330.10 211.08 331.18Q212.11 332.25 213.96 332.25" fill="white" fill-opacity="0.9"/>
<path d="M228.65 334.52L225.87 334.52L225.87 311.16L230.12 311.16L233.10 321.27L236.20 311.16L240.46 311.16L240.46 334.52L237.67 334.52L237.67 323.48Q237.67 321.91 237.72 319.88Q237.77 317.85 237.87 315.77Q237.96 313.69 238.09 312.02L234.31 324.09L231.82 324.09L228.20 312.31Q228.46 314.68 228.55 317.50Q228.65 320.31 228.65 323.48" fill="white" fill-opacity="0.9"/>
<path d="M247.85 334.52L245.07 334.52L245.07 311.16L249.32 311.16L252.30 321.27L255.40 311.16L259.66 311.16L259.66 334.52L256.87 334.52L256.87 323.48Q256.87 321.91 256.92 319.88Q256.97 317.85 257.07 315.77Q257.16 313.69 257.29 312.02L253.51 324.09L251.02 324.09L247.40 312.31Q247.66 314.68 247.75 317.50Q247.85 320.31 247.85 323.48" fill="white" fill-opacity="0.9"/>
<path d="M271.56 334.84Q268.30 334.84 266.57 333.03Q264.84 331.22 264.84 328.12L264.84 311.16L267.72 311.16L267.72 328.12Q267.72 330.04 268.67 331.16Q269.61 332.28 271.56 332.28Q273.48 332.28 274.44 331.16Q275.40 330.04 275.40 328.12L275.40 311.16L278.28 311.16L278.28 328.12Q278.28 331.26 276.57 333.05Q274.86 334.84 271.56 334.84" fill="white" fill-opacity="0.9"/>
<path d="M286.83 334.52L284.04 334.52L284.04 311.16L287.88 311.16L295.02 331.16Q294.95 330.36 294.87 329.19Q294.79 328.02 294.75 326.73Q294.70 325.43 294.70 324.28L294.70 311.16L297.48 311.16L297.48 334.52L293.64 334.52L286.54 314.52Q286.60 315.29 286.67 316.46Q286.73 317.62 286.78 318.92Q286.83 320.22 286.83 321.40" fill="white" fill-opacity="0.9"/>
<path d="M316.20 334.52L303.72 334.52L303.72 331.90L308.49 331.90L308.49 313.78L303.72 313.78L303.72 311.16L316.20 311.16L316.20 313.78L311.43 313.78L311.43 331.90L316.20 331.90" fill="white" fill-opacity="0.9"/>
<path d="M330.60 334.52L327.72 334.52L327.72 313.78L321.32 313.78L321.32 311.16L337 311.16L337 313.78L330.60 313.78" fill="white" fill-opacity="0.9"/>
<path d="M349.80 334.52L346.92 334.52L346.92 325.78L339.88 311.16L342.95 311.16L347.50 320.76Q347.88 321.56 348.11 322.12Q348.33 322.68 348.39 322.94Q348.46 322.68 348.70 322.12Q348.94 321.56 349.32 320.76L353.87 311.16L356.84 311.16L349.80 325.78" fill="white" fill-opacity="0.9"/>
<path d="M382.83 334.52L380.04 334.52L380.04 311.16L383.88 311.16L391.02 331.16Q390.95 330.36 390.87 329.19Q390.79 328.02 390.75 326.73Q390.70 325.43 390.70 324.28L390.70 311.16L393.48 311.16L393.48 334.52L389.64 334.52L382.54 314.52Q382.60 315.29 382.67 316.46Q382.73 317.62 382.78 318.92Q382.83 320.22 382.83 321.40" fill="white" fill-opacity="0.9"/>
<path d="M405.96 334.84Q402.83 334.84 401 333.02Q399.18 331.19 399.18 327.80L399.18 317.88Q399.18 314.49 401 312.66Q402.83 310.84 405.96 310.84Q409.10 310.84 410.92 312.66Q412.75 314.49 412.75 317.85L412.75 327.80Q412.75 331.19 410.92 333.02Q409.10 334.84 405.96 334.84M405.96 332.25Q407.85 332.25 408.86 331.18Q409.87 330.10 409.87 328.12L409.87 317.56Q409.87 315.58 408.86 314.50Q407.85 313.43 405.96 313.43Q404.11 313.43 403.08 314.50Q402.06 315.58 402.06 317.56L402.06 328.12Q402.06 330.10 403.08 331.18Q404.11 332.25 405.96 332.25" fill="white" fill-opacity="0.9"/>
<path d="M424.55 334.52L418.51 334.52L418.51 311.16L424.55 311.16Q426.83 311.16 428.47 312.02Q430.12 312.89 431.03 314.46Q431.95 316.02 431.95 318.17L431.95 327.48Q431.95 329.62 431.03 331.21Q430.12 332.79 428.47 333.66Q426.83 334.52 424.55 334.52M421.39 313.72L421.39 331.96L424.55 331.96Q426.67 331.96 427.87 330.78Q429.07 329.59 429.07 327.48L429.07 318.17Q429.07 316.09 427.87 314.90Q426.67 313.72 424.55 313.72" fill="white" fill-opacity="0.9"/>
<path d="M451.40 334.52L437.96 334.52L437.96 311.16L451.40 311.16L451.40 313.78L440.81 313.78L440.81 321.02L450.28 321.02L450.28 323.58L440.81 323.58L440.81 331.90L451.40 331.90" fill="white" fill-opacity="0.9"/>
<path d="M463.69 334.84Q460.30 334.84 458.28 333.05Q456.27 331.26 456.27 328.12L459.15 328.12Q459.15 330.07 460.39 331.18Q461.64 332.28 463.69 332.28Q465.67 332.28 466.86 331.13Q468.04 329.98 468.04 328.12Q468.04 326.71 467.29 325.67Q466.54 324.63 465.13 324.25L461.58 323.26Q459.37 322.62 458.11 320.97Q456.84 319.32 456.84 317.08Q456.84 315.22 457.67 313.82Q458.51 312.41 460.01 311.62Q461.51 310.84 463.47 310.84Q465.45 310.84 466.97 311.62Q468.49 312.41 469.35 313.80Q470.22 315.19 470.22 317.02L467.34 317.02Q467.34 315.42 466.25 314.41Q465.16 313.40 463.47 313.40Q461.77 313.40 460.71 314.41Q459.66 315.42 459.66 317.02Q459.66 318.30 460.35 319.21Q461.03 320.12 462.28 320.47L465.93 321.50Q468.27 322.14 469.56 323.91Q470.86 325.69 470.86 328.12Q470.86 331.19 468.91 333.02Q466.95 334.84 463.69 334.84" fill="white" fill-opacity="0.9"/>
</g>
<path d="M76.74 197.64L72.21 197.64L72.21 180.12L76.74 180.12Q78.45 180.12 79.68 180.77Q80.92 181.42 81.60 182.59Q82.29 183.77 82.29 185.38L82.29 192.36Q82.29 193.97 81.60 195.16Q80.92 196.34 79.68 196.99Q78.45 197.64 76.74 197.64M74.37 182.04L74.37 195.72L76.74 195.72Q78.33 195.72 79.23 194.83Q80.13 193.94 80.13 192.36L80.13 185.38Q80.13 183.82 79.23 182.93Q78.33 182.04 76.74 182.04" fill="white" fill-opacity="0.7"/>
<path d="M91.60 197.83Q89.22 197.83 87.82 196.44Q86.42 195.05 86.42 192.55L86.42 189.53Q86.42 187.01 87.81 185.63Q89.20 184.25 91.60 184.25Q94 184.25 95.39 185.63Q96.78 187.01 96.78 189.53L96.78 192.55Q96.78 195.05 95.38 196.44Q93.98 197.83 91.60 197.83M91.60 195.91Q93.02 195.91 93.82 195.12Q94.62 194.33 94.62 192.79L94.62 189.29Q94.62 187.75 93.82 186.96Q93.02 186.17 91.60 186.17Q90.21 186.17 89.39 186.96Q88.58 187.75 88.58 189.29L88.58 192.79Q88.58 194.33 89.39 195.12Q90.21 195.91 91.60 195.91" fill="white" fill-opacity="0.7"/>
<path d="M104.08 197.64L101.70 197.64L99.54 184.44L101.42 184.44L102.76 193.75Q102.83 194.28 102.90 194.92Q102.98 195.55 NaN 195.96Q103.05 195.55 103.11 194.92Q103.17 194.28 103.26 193.75L104.92 184.44L107.08 184.44L108.74 193.75Q108.83 194.28 108.92 194.92QNaN 195.55 109.02 195.96Q109.07 195.55 109.14 194.92Q109.22 194.28 109.29 193.75L110.68 184.44L112.46 184.44L110.20 197.64L107.82 197.64L106.31 188.52Q106.22 187.85 106.13 187.09Q106.05 186.34 NaN 185.93Q105.98 186.34 105.88 187.09Q105.78 187.85 105.66 188.52" fill="white" fill-opacity="0.7"/>
<path d="M117.57 197.64L115.41 197.64L115.41 184.44L117.57 184.44L117.57 186.96L117.59 186.96Q117.76 185.64 118.67 184.92Q119.58 184.20 121.10 184.20Q123.09 184.20 124.26 185.42Q125.44 186.65 125.44 188.76L125.44 197.64L123.28 197.64L123.28 189.14Q123.28 187.63 122.52 186.83Q121.77 186.02 120.47 186.02Q119.13 186.02 118.35 186.86Q117.57 187.70 117.57 189.24" fill="white" fill-opacity="0.7"/>
<path d="M140.80 197.64L136.72 197.64Q134.97 197.64 133.92 196.62Q132.88 195.60 132.88 193.92L132.88 182.09L128.32 182.09L128.32 180.12L135.04 180.12L135.04 193.92Q135.04 194.74 135.50 195.20Q135.95 195.67 136.72 195.67L140.80 195.67" fill="white" fill-opacity="0.7"/>
<path d="M149.20 197.83Q146.82 197.83 145.42 196.44Q144.02 195.05 144.02 192.55L144.02 189.53Q144.02 187.01 145.41 185.63Q146.80 184.25 149.20 184.25Q151.60 184.25 152.99 185.63Q154.38 187.01 154.38 189.53L154.38 192.55Q154.38 195.05 152.98 196.44Q151.58 197.83 149.20 197.83M149.20 195.91Q150.62 195.91 151.42 195.12Q152.22 194.33 152.22 192.79L152.22 189.29Q152.22 187.75 151.42 186.96Q150.62 186.17 149.20 186.17Q147.81 186.17 146.99 186.96Q146.18 187.75 146.18 189.29L146.18 192.79Q146.18 194.33 146.99 195.12Q147.81 195.91 149.20 195.91" fill="white" fill-opacity="0.7"/>
<path d="M162.45 197.88Q160.41 197.88 159.21 196.74Q158.01 195.60 158.01 193.75Q158.01 192.53 158.56 191.62Q159.11 190.70 160.10 190.19Q161.08 189.67 162.35 189.67L166.43 189.67L166.43 188.64Q166.43 186.07 163.62 186.07Q162.38 186.07 161.61 186.53Q160.84 186.98 160.79 187.80L158.63 187.80Q158.75 186.24 160.08 185.22Q161.42 184.20 163.62 184.20Q166.02 184.20 167.31 185.35Q168.59 186.50 168.59 188.57L168.59 197.64L166.46 197.64L166.46 195.24L166.41 195.24Q166.22 196.46 165.18 197.17Q164.15 197.88 162.45 197.88M162.98 196.06Q164.56 196.06 165.50 195.29Q166.43 194.52 166.43 193.20L166.43 191.35L162.59 191.35Q161.54 191.35 160.88 191.99Q160.22 192.62 160.22 193.68Q160.22 194.78 160.95 195.42Q161.68 196.06 162.98 196.06" fill="white" fill-opacity="0.7"/>
<path d="M177.23 197.88Q175.26 197.88 174.08 196.56Q172.89 195.24 172.89 192.98L172.89 189.12Q172.89 186.84 174.06 185.52Q175.24 184.20 177.23 184.20Q178.72 184.20 179.69 184.94Q180.66 185.69 180.86 186.96L180.88 186.96L180.83 183.96L180.83 180.12L182.99 180.12L182.99 197.64L180.83 197.64L180.83 195.12L180.81 195.12Q180.64 196.42 179.68 197.15Q178.72 197.88 177.23 197.88M177.95 196.01Q179.30 196.01 180.06 195.17Q180.83 194.33 180.83 192.84L180.83 189.24Q180.83 187.75 180.06 186.91Q179.30 186.07 177.95 186.07Q176.58 186.07 175.82 186.78Q175.05 187.49 175.05 189.12L175.05 192.96Q175.05 194.57 175.82 195.29Q176.58 196.01 177.95 196.01" fill="white" fill-opacity="0.7"/>
<path d="M206.80 197.88Q204.47 197.88 203.04 196.48Q201.62 195.07 201.62 192.60L201.62 189.48Q201.62 187.01 203.04 185.60Q204.47 184.20 206.80 184.20Q208.36 184.20 209.52 184.82Q210.69 185.45 211.34 186.58Q211.98 187.70 211.98 189.24L211.98 191.59L203.73 191.59L203.73 192.84Q203.73 194.30 204.57 195.16Q205.41 196.01 206.80 196.01QNaN 196.01 208.78 195.54Q209.56 195.07 209.73 194.28L211.89 194.28Q211.67 195.94 210.28 196.91Q208.89 197.88 206.80 197.88M203.73 189.24L203.73 189.91L209.87 189.91L209.87 189.24Q209.87 187.68 209.07 186.83Q208.26 185.98 206.80 185.98Q205.34 185.98 204.53 186.83Q203.73 187.68 203.73 189.24" fill="white" fill-opacity="0.7"/>
<path d="M221.30 197.88Q218.75 197.88 217.24 196.54Q215.73 195.19 215.73 192.84L217.89 192.84Q217.89 194.30 218.82 195.13Q219.76 195.96 221.30 195.96Q222.78 195.96 223.67 195.10Q224.56 194.23 224.56 192.84Q224.56 191.78 224 191Q223.43 190.22 222.38 189.94L219.71 189.19Q218.06 188.71 217.11 187.48Q216.16 186.24 216.16 184.56Q216.16 183.17 216.78 182.11Q217.41 181.06 218.54 180.47Q219.66 179.88 221.13 179.88Q222.62 179.88 223.76 180.47Q224.90 181.06 225.54 182.10Q226.19 183.14 226.19 184.51L224.03 184.51Q224.03 183.31 223.22 182.56Q222.40 181.80 221.13 181.80Q219.86 181.80 219.06 182.56Q218.27 183.31 218.27 184.51Q218.27 185.47 218.79 186.16Q219.30 186.84 220.24 187.10L222.98 187.87Q224.73 188.35 225.70 189.68Q226.67 191.02 226.67 192.84Q226.67 195.14 225.21 196.51Q223.74 197.88 221.30 197.88" fill="white" fill-opacity="0.7"/>
<path d="M241.72 197.64L230.44 197.64L230.44 195.67L235.12 195.67L235.12 186.41L230.92 186.41L230.92 184.44L237.28 184.44L237.28 195.67L241.72 195.67L241.72 197.64M235.96 182.06Q235.17 182.06 234.71 181.66Q234.26 181.25 234.26 180.55Q234.26 179.83 234.71 179.41Q235.17 178.99 235.96 178.99Q236.75 178.99 237.21 179.41Q237.66 179.83 237.66 180.55Q237.66 181.25 237.21 181.66Q236.75 182.06 235.96 182.06" fill="white" fill-opacity="0.7"/>
<path d="M250.36 201.96L246.66 201.96L246.66 199.99L250.38 199.99Q251.51 199.99 252.16 199.36Q252.81 198.72 252.81 197.64L252.81 196.44L252.86 194.28L252.78 194.28Q252.59 195.46 251.66 196.09Q250.72 196.73 249.30 196.73Q247.26 196.73 246.09 195.43Q244.91 194.14 244.91 191.88L244.91 189.10Q244.91 186.84 246.09 185.52Q247.26 184.20 249.30 184.20Q250.72 184.20 251.66 184.87Q252.59 185.54 252.78 186.72L252.83 186.72L252.83 184.44L254.97 184.44L254.97 197.64Q254.97 199.63 253.73 200.80Q252.50 201.96 250.36 201.96M249.95 194.93Q251.30 194.93 252.06 194.09Q252.83 193.25 252.83 191.76L252.83 189.24Q252.83 187.75 252.06 186.91Q251.30 186.07 249.95 186.07Q248.58 186.07 247.83 186.86Q247.07 187.66 247.07 189L247.07 192Q247.07 193.34 247.83 194.14Q248.58 194.93 249.95 194.93" fill="white" fill-opacity="0.7"/>
<path d="M261.57 197.64L259.41 197.64L259.41 184.44L261.57 184.44L261.57 186.96L261.59 186.96Q261.76 185.64 262.67 184.92Q263.58 184.20 265.10 184.20Q267.09 184.20 268.26 185.42Q269.44 186.65 269.44 188.76L269.44 197.64L267.28 197.64L267.28 189.14Q267.28 187.63 266.52 186.83Q265.77 186.02 264.47 186.02Q263.13 186.02 262.35 186.86Q261.57 187.70 261.57 189.24" fill="white" fill-opacity="0.7"/>
<path d="M278.80 197.88Q276.47 197.88 275.04 196.48Q273.62 195.07 273.62 192.60L273.62 189.48Q273.62 187.01 275.04 185.60Q276.47 184.20 278.80 184.20Q280.36 184.20 281.52 184.82Q282.69 185.45 283.34 186.58Q283.98 187.70 283.98 189.24L283.98 191.59L275.73 191.59L275.73 192.84Q275.73 194.30 276.57 195.16Q277.41 196.01 278.80 196.01Q280 196.01 280.78 195.54Q281.56 195.07 281.73 194.28L283.89 194.28Q283.67 195.94 282.28 196.91Q280.89 197.88 278.80 197.88M275.73 189.24L275.73 189.91L281.87 189.91L281.87 189.24Q281.87 187.68 281.07 186.83Q280.26 185.98 278.80 185.98Q277.34 185.98 276.53 186.83Q275.73 187.68 275.73 189.24" fill="white" fill-opacity="0.7"/>
<path d="M292.43 197.88Q290.46 197.88 289.28 196.56Q288.09 195.24 288.09 192.98L288.09 189.12Q288.09 186.84 289.26 185.52Q290.44 184.20 292.43 184.20Q293.92 184.20 294.89 184.94Q295.86 185.69 296.06 186.96L296.08 186.96L296.03 183.96L296.03 180.12L298.19 180.12L298.19 197.64L296.03 197.64L296.03 195.12L296.01 195.12Q295.84 196.42 294.88 197.15Q293.92 197.88 292.43 197.88M293.15 196.01Q294.50 196.01 295.26 195.17Q296.03 194.33 296.03 192.84L296.03 189.24Q296.03 187.75 295.26 186.91Q294.50 186.07 293.15 186.07Q291.78 186.07 291.02 186.78Q290.25 187.49 290.25 189.12L290.25 192.96Q290.25 194.57 291.02 195.29Q291.78 196.01 293.15 196.01" fill="white" fill-opacity="0.7"/>
<path d="M322.19 197.88Q319.79 197.88 318.35 196.54Q316.91 195.19 316.91 192.84L316.91 189.24Q316.91 186.89 318.35 185.54Q319.79 184.20 322.19 184.20Q324.47 184.20 325.88 185.42Q327.28 186.65 327.35 188.76L325.19 188.76Q325.12 187.49 324.33 186.80Q323.54 186.12 322.19 186.12Q320.78 186.12 319.92 186.92Q319.07 187.73 319.07 189.22L319.07 192.84Q319.07 194.33 319.92 195.14Q320.78 195.96 322.19 195.96Q323.54 195.96 324.33 195.26Q325.12 194.57 325.19 193.32L327.35 193.32Q327.28 195.43 325.88 196.66Q324.47 197.88 322.19 197.88" fill="white" fill-opacity="0.7"/>
<path d="M336.40 197.88Q334.07 197.88 332.64 196.48Q331.22 195.07 331.22 192.60L331.22 189.48Q331.22 187.01 332.64 185.60Q334.07 184.20 336.40 184.20Q337.96 184.20 339.12 184.82Q340.29 185.45 340.94 186.58Q341.58 187.70 341.58 189.24L341.58 191.59L333.33 191.59L333.33 192.84Q333.33 194.30 334.17 195.16Q335.01 196.01 336.40 196.01Q337.60 196.01 338.38 195.54Q339.16 195.07 339.33 194.28L341.49 194.28Q341.27 195.94 339.88 196.91Q338.49 197.88 336.40 197.88M333.33 189.24L333.33 189.91L339.47 189.91L339.47 189.24Q339.47 187.68 338.67 186.83Q337.86 185.98 336.40 185.98Q334.94 185.98 334.13 186.83Q333.33 187.68 333.33 189.24" fill="white" fill-opacity="0.7"/>
<path d="M348.45 197.64L346.29 197.64L346.29 184.44L348.45 184.44L348.45 186.96L348.50 186.96Q348.66 185.69 349.58 184.94Q350.49 184.20 352.02 184.20Q354.09 184.20 355.20 185.44Q356.32 186.67 356.32 188.95L356.32 190.08L354.16 190.08L354.16 188.95Q354.16 186.07 351.35 186.07Q349.94 186.07 349.19 186.89Q348.45 187.70 348.45 189.24" fill="white" fill-opacity="0.7"/>
<path d="M370.36 197.64L366.52 197.64Q364.89 197.64 363.90 196.69Q362.92 195.74 362.92 194.16L362.92 186.41L359.13 186.41L359.13 184.44L362.92 184.44L362.92 180.72L365.08 180.72L365.08 184.44L370.48 184.44L370.48 186.41L365.08 186.41L365.08 194.16Q365.08 194.83 365.48 195.25Q365.87 195.67 366.52 195.67L370.36 195.67" fill="white" fill-opacity="0.7"/>
<path d="M385.72 197.64L374.44 197.64L374.44 195.67L379.12 195.67L379.12 186.41L374.92 186.41L374.92 184.44L381.28 184.44L381.28 195.67L385.72 195.67L385.72 197.64M379.96 182.06Q379.17 182.06 378.71 181.66Q378.26 181.25 378.26 180.55Q378.26 179.83 378.71 179.41Q379.17 178.99 379.96 178.99Q380.75 178.99 381.21 179.41Q381.66 179.83 381.66 180.55Q381.66 181.25 381.21 181.66Q380.75 182.06 379.96 182.06" fill="white" fill-opacity="0.7"/>
<path d="M394.12 197.64L391.96 197.64L391.96 188.21L388.12 188.21L388.12 186.24L391.96 186.24L391.96 183.48Q391.96 181.92 392.94 181.02Q393.93 180.12 395.66 180.12L399.52 180.12L399.52 182.09L395.66 182.09Q394.12 182.09 394.12 183.48L394.12 186.24L399.52 186.24L399.52 188.21L394.12 188.21" fill="white" fill-opacity="0.7"/>
<path d="M414.52 197.64L403.24 197.64L403.24 195.67L407.92 195.67L407.92 186.41L403.72 186.41L403.72 184.44L410.08 184.44L410.08 195.67L414.52 195.67L414.52 197.64M408.76 182.06Q407.97 182.06 407.51 181.66Q407.06 181.25 407.06 180.55Q407.06 179.83 407.51 179.41Q407.97 178.99 408.76 178.99Q409.55 178.99 410.01 179.41Q410.46 179.83 410.46 180.55Q410.46 181.25 410.01 181.66Q409.55 182.06 408.76 182.06" fill="white" fill-opacity="0.7"/>
<path d="M422.99 197.88Q420.59 197.88 419.15 196.54Q417.71 195.19 417.71 192.84L417.71 189.24Q417.71 186.89 419.15 185.54Q420.59 184.20 422.99 184.20Q425.27 184.20 426.68 185.42Q428.08 186.65 428.15 188.76L425.99 188.76Q425.92 187.49 425.13 186.80Q424.34 186.12 422.99 186.12Q421.58 186.12 420.72 186.92Q419.87 187.73 419.87 189.22L419.87 192.84Q419.87 194.33 420.72 195.14Q421.58 195.96 422.99 195.96Q424.34 195.96 425.13 195.26Q425.92 194.57 425.99 193.32L428.15 193.32Q428.08 195.43 426.68 196.66Q425.27 197.88 422.99 197.88" fill="white" fill-opacity="0.7"/>
<path d="M436.05 197.88Q434.01 197.88 432.81 196.74Q431.61 195.60 431.61 193.75Q431.61 192.53 432.16 191.62Q432.71 190.70 433.70 190.19Q434.68 189.67 435.95 189.67L440.03 189.67L440.03 188.64Q440.03 186.07 437.22 186.07Q435.98 186.07 435.21 186.53Q434.44 186.98 434.39 187.80L432.23 187.80Q432.35 186.24 433.68 185.22Q435.02 184.20 437.22 184.20Q439.62 184.20 440.91 185.35Q442.19 186.50 442.19 188.57L442.19 197.64L440.06 197.64L440.06 195.24L440.01 195.24Q439.82 196.46 438.78 197.17Q437.75 197.88 436.05 197.88M436.58 196.06Q438.16 196.06 439.10 195.29Q440.03 194.52 440.03 193.20L440.03 191.35L436.19 191.35Q435.14 191.35 434.48 191.99Q433.82 192.62 433.82 193.68Q433.82 194.78 434.55 195.42Q435.28 196.06 436.58 196.06" fill="white" fill-opacity="0.7"/>
<path d="M456.76 197.64L452.92 197.64Q451.29 197.64 450.30 196.69Q449.32 195.74 449.32 194.16L449.32 186.41L445.53 186.41L445.53 184.44L449.32 184.44L449.32 180.72L451.48 180.72L451.48 184.44L456.88 184.44L456.88 186.41L451.48 186.41L451.48 194.16Q451.48 194.83 451.88 195.25Q452.27 195.67 452.92 195.67L456.76 195.67" fill="white" fill-opacity="0.7"/>
<path d="M466 197.88Q463.67 197.88 462.24 196.48Q460.82 195.07 460.82 192.60L460.82 189.48Q460.82 187.01 462.24 185.60Q463.67 184.20 466 184.20Q467.56 184.20 468.72 184.82Q469.89 185.45 470.54 186.58Q471.18 187.70 471.18 189.24L471.18 191.59L462.93 191.59L462.93 192.84Q462.93 194.30 463.77 195.16Q464.61 196.01 466 196.01Q467.20 196.01 467.98 195.54Q468.76 195.07 468.93 194.28L471.09 194.28Q470.87 195.94 469.48 196.91Q468.09 197.88 466 197.88M462.93 189.24L462.93 189.91L469.07 189.91L469.07 189.24Q469.07 187.68 468.27 186.83Q467.46 185.98 466 185.98Q464.54 185.98 463.73 186.83Q462.93 187.68 462.93 189.24" fill="white" fill-opacity="0.7"/>
<path d="M480.93 197.83L479.87 197.83Q477.66 197.83 476.45 196.84Q475.24 195.84 475.24 194.02L477.40 194.02Q477.40 194.93 478.05 195.44Q478.70 195.96 479.87 195.96L480.93 195.96Q482.13 195.96 482.79 195.43Q483.45 194.90 483.45 193.94Q483.45 192.24 481.89 192.02L478.24 191.50Q476.90 191.30 476.15 190.38Q475.41 189.46 475.41 187.94Q475.41 186.22 476.60 185.23Q477.78 184.25 479.87 184.25L480.93 184.25Q482.85 184.25 484.06 185.20Q485.27 186.14 485.37 187.68L483.18 187.68Q483.14 186.98 482.52 186.53Q481.91 186.07 480.93 186.07L479.87 186.07Q478.77 186.07 478.14 186.58Q477.52 187.08 477.52 187.94Q477.52 189.34 478.79 189.53L482.20 190.01Q485.56 190.49 485.56 193.94Q485.56 195.79 484.35 196.81Q483.14 197.83 480.93 197.83" fill="white" fill-opacity="0.7"/>
<path d="M509.32 197.64L507.16 197.64L507.16 188.21L503.32 188.21L503.32 186.24L507.16 186.24L507.16 183.48Q507.16 181.92 508.14 181.02Q509.13 180.12 510.86 180.12L514.72 180.12L514.72 182.09L510.86 182.09Q509.32 182.09 509.32 183.48L509.32 186.24L514.72 186.24L514.72 188.21L509.32 188.21" fill="white" fill-opacity="0.7"/>
<path d="M521.25 197.64L519.09 197.64L519.09 184.44L521.25 184.44L521.25 186.96L521.30 186.96Q521.46 185.69 522.38 184.94Q523.29 184.20 524.82 184.20Q526.89 184.20 528 185.44Q529.12 186.67 529.12 188.95L529.12 190.08L526.96 190.08L526.96 188.95Q526.96 186.07 524.15 186.07Q522.74 186.07 521.99 186.89Q521.25 187.70 521.25 189.24" fill="white" fill-opacity="0.7"/>
<path d="M538 197.83Q535.62 197.83 534.22 196.44Q532.82 195.05 532.82 192.55L532.82 189.53Q532.82 187.01 534.21 185.63Q535.60 184.25 538 184.25Q540.40 184.25 541.79 185.63Q543.18 187.01 543.18 189.53L543.18 192.55Q543.18 195.05 541.78 196.44Q540.38 197.83 538 197.83M538 195.91Q539.42 195.91 540.22 195.12Q541.02 194.33 541.02 192.79L541.02 189.29Q541.02 187.75 540.22 186.96Q539.42 186.17 538 186.17Q536.61 186.17 535.79 186.96Q534.98 187.75 534.98 189.29L534.98 192.79Q534.98 194.33 535.79 195.12Q536.61 195.91 538 195.91" fill="white" fill-opacity="0.7"/>
<path d="M548.66 197.64L546.64 197.64L546.64 184.44L548.51 184.44L548.51 186.19L548.56 186.19Q548.68 185.30 549.27 184.75Q549.86 184.20 550.77 184.20Q551.63 184.20 552.23 184.70Q552.83 185.21 553.10 186.07L553.12 186.07Q553.29 185.21 553.88 184.70Q554.46 184.20 555.38 184.20Q556.65 184.20 557.40 185.15Q558.16 186.10 558.16 187.61L558.16 197.64L556.14 197.64L556.14 187.58Q556.14 186.79 555.76 186.32Q555.38 185.86 554.70 185.86Q554.06 185.86 553.67 186.31Q553.29 186.77 553.29 187.56L553.29 197.64L551.51 197.64L551.51 187.58Q551.51 186.79 551.13 186.32Q550.74 185.86 550.10 185.86Q549.42 185.86 549.04 186.31Q548.66 186.77 548.66 187.56" fill="white" fill-opacity="0.7"/>
<path d="M578.37 197.64L576.21 197.64L576.21 180.12L578.37 180.12L578.37 187.66L580.96 187.66L584.85 180.12L587.20 180.12L582.86 188.57L587.44 197.64L584.97 197.64L580.89 189.55L578.37 189.55" fill="white" fill-opacity="0.7"/>
<path d="M594.45 197.88Q592.41 197.88 591.21 196.74Q590.01 195.60 590.01 193.75Q590.01 192.53 590.56 191.62Q591.11 190.70 592.10 190.19Q593.08 189.67 594.35 189.67L598.43 189.67L598.43 188.64Q598.43 186.07 595.62 186.07Q594.38 186.07 593.61 186.53Q592.84 186.98 592.79 187.80L590.63 187.80Q590.75 186.24 592.08 185.22Q593.42 184.20 595.62 184.20Q598.02 184.20 599.31 185.35Q600.59 186.50 600.59 188.57L600.59 197.64L598.46 197.64L598.46 195.24L598.41 195.24Q598.22 196.46 597.18 197.17Q596.15 197.88 594.45 197.88M594.98 196.06Q596.56 196.06 597.50 195.29Q598.43 194.52 598.43 193.20L598.43 191.35L594.59 191.35Q593.54 191.35 592.88 191.99Q592.22 192.62 592.22 193.68Q592.22 194.78 592.95 195.42Q593.68 196.06 594.98 196.06" fill="white" fill-opacity="0.7"/>
<path d="M607.65 197.64L605.49 197.64L605.49 184.44L607.65 184.44L607.65 186.96L607.70 186.96Q607.86 185.69 608.78 184.94Q609.69 184.20 611.22 184.20Q613.29 184.20 614.40 185.44Q615.52 186.67 615.52 188.95L615.52 190.08L613.36 190.08L613.36 188.95Q613.36 186.07 610.55 186.07Q609.14 186.07 608.39 186.89Q607.65 187.70 607.65 189.24" fill="white" fill-opacity="0.7"/>
<path d="M621.57 197.64L619.41 197.64L619.41 184.44L621.57 184.44L621.57 186.96L621.59 186.96Q621.76 185.64 622.67 184.92Q623.58 184.20 625.10 184.20Q627.09 184.20 628.26 185.42Q629.44 186.65 629.44 188.76L629.44 197.64L627.28 197.64L627.28 189.14Q627.28 187.63 626.52 186.83Q625.77 186.02 624.47 186.02Q623.13 186.02 622.35 186.86Q621.57 187.70 621.57 189.24" fill="white" fill-opacity="0.7"/>
<path d="M637.65 197.88Q635.61 197.88 634.41 196.74Q633.21 195.60 633.21 193.75Q633.21 192.53 633.76 191.62Q634.31 190.70 635.30 190.19Q636.28 189.67 637.55 189.67L641.63 189.67L641.63 188.64Q641.63 186.07 638.82 186.07Q637.58 186.07 636.81 186.53Q636.04 186.98 635.99 187.80L633.83 187.80Q633.95 186.24 635.28 185.22Q636.62 184.20 638.82 184.20Q641.22 184.20 642.51 185.35Q643.79 186.50 643.79 188.57L643.79 197.64L641.66 197.64L641.66 195.24L641.61 195.24Q641.42 196.46 640.38 197.17Q639.35 197.88 637.65 197.88M638.18 196.06Q639.76 196.06 640.70 195.29Q641.63 194.52 641.63 193.20L641.63 191.35L637.79 191.35Q636.74 191.35 636.08 191.99Q635.42 192.62 635.42 193.68Q635.42 194.78 636.15 195.42Q636.88 196.06 638.18 196.06" fill="white" fill-opacity="0.7"/>
<path d="M658.36 197.64L654.52 197.64Q652.89 197.64 651.90 196.69Q650.92 195.74 650.92 194.16L650.92 186.41L647.13 186.41L647.13 184.44L650.92 184.44L650.92 180.72L653.08 180.72L653.08 184.44L658.48 184.44L658.48 186.41L653.08 186.41L653.08 194.16Q653.08 194.83 653.48 195.25Q653.87 195.67 654.52 195.67L658.36 195.67" fill="white" fill-opacity="0.7"/>
<path d="M666.45 197.88Q664.41 197.88 663.21 196.74Q662.01 195.60 662.01 193.75Q662.01 192.53 662.56 191.62Q663.11 190.70 664.10 190.19Q665.08 189.67 666.35 189.67L670.43 189.67L670.43 188.64Q670.43 186.07 667.62 186.07Q666.38 186.07 665.61 186.53Q664.84 186.98 664.79 187.80L662.63 187.80Q662.75 186.24 664.08 185.22Q665.42 184.20 667.62 184.20Q670.02 184.20 671.31 185.35Q672.59 186.50 672.59 188.57L672.59 197.64L670.46 197.64L670.46 195.24L670.41 195.24Q670.22 196.46 669.18 197.17Q668.15 197.88 666.45 197.88M666.98 196.06Q668.56 196.06 669.50 195.29Q670.43 194.52 670.43 193.20L670.43 191.35L666.59 191.35Q665.54 191.35 664.88 191.99Q664.22 192.62 664.22 193.68Q664.22 194.78 664.95 195.42Q665.68 196.06 666.98 196.06" fill="white" fill-opacity="0.7"/>
<path d="M679.29 197.64L677.13 197.64L677.13 180.12L679.29 180.12L679.29 189.89L681.81 189.89L685.50 184.44L687.98 184.44L683.73 190.73L688.22 197.64L685.70 197.64L681.86 191.76L679.29 191.76" fill="white" fill-opacity="0.7"/>
<path d="M695.25 197.88Q693.21 197.88 692.01 196.74Q690.81 195.60 690.81 193.75Q690.81 192.53 691.36 191.62Q691.91 190.70 692.90 190.19Q693.88 189.67 695.15 189.67L699.23 189.67L699.23 188.64Q699.23 186.07 696.42 186.07Q695.18 186.07 694.41 186.53Q693.64 186.98 693.59 187.80L691.43 187.80Q691.55 186.24 692.88 185.22Q694.22 184.20 696.42 184.20Q698.82 184.20 700.11 185.35Q701.39 186.50 701.39 188.57L701.39 197.64L699.26 197.64L699.26 195.24L699.21 195.24Q699.02 196.46 697.98 197.17Q696.95 197.88 695.25 197.88M695.78 196.06Q697.36 196.06 698.30 195.29Q699.23 194.52 699.23 193.20L699.23 191.35L695.39 191.35Q694.34 191.35 693.68 191.99Q693.02 192.62 693.02 193.68Q693.02 194.78 693.75 195.42Q694.48 196.06 695.78 196.06" fill="white" fill-opacity="0.7"/>
<path d="M729.88 197.64L720.52 197.64L720.52 195.67L724.10 195.67L724.10 182.09L720.52 182.09L720.52 180.12L729.88 180.12L729.88 182.09L726.30 182.09L726.30 195.67L729.88 195.67" fill="white" fill-opacity="0.7"/>
<path d="M740.68 197.64L738.52 197.64L738.52 182.09L733.72 182.09L733.72 180.12L745.48 180.12L745.48 182.09L740.68 182.09" fill="white" fill-opacity="0.7"/>
<path d="M754.36 197.64L749.03 197.64L749.03 180.12L754 180.12Q756.40 180.12 757.76 181.32Q759.11 182.52 759.11 184.66Q759.11 186 758.26 187.08Q757.41 188.16 756.04 188.42L756.04 188.50Q757.07 188.62 757.85 189.22Q758.63 189.82 759.08 190.74Q759.52 191.66 759.52 192.77Q759.52 195.02 758.14 196.33Q756.76 197.64 754.36 197.64M751.14 182.06L751.14 187.58L753.98 187.58Q755.37 187.58 756.17 186.84Q756.98 186.10 756.98 184.82Q756.98 183.55 756.18 182.81Q755.39 182.06 754 182.06L751.14 182.06M751.14 189.46L751.14 195.70L754.12 195.70Q755.63 195.70 756.51 194.89Q757.38 194.09 757.38 192.70Q757.38 191.26 756.51 190.36Q755.63 189.46 754.12 189.46" fill="white" fill-opacity="0.7"/>
<path d="M769.48 197.64L767.32 197.64L767.32 182.09L762.52 182.09L762.52 180.12L774.28 180.12L774.28 182.09L769.48 182.09" fill="white" fill-opacity="0.7"/>
<path d="M798.62 197.64L795.78 197.64L791.30 184.44L793.62 184.44L796.50 193.32Q796.77 194.11 796.96 194.84Q797.15 195.58 797.25 195.98Q797.37 195.58 797.54 194.84Q797.70 194.11 797.94 193.32L800.82 184.44L803.10 184.44" fill="white" fill-opacity="0.7"/>
<path d="M817.72 197.64L806.44 197.64L806.44 195.67L811.12 195.67L811.12 186.41L806.92 186.41L806.92 184.44L813.28 184.44L813.28 195.67L817.72 195.67L817.72 197.64M811.96 182.06Q811.17 182.06 810.71 181.66Q810.26 181.25 810.26 180.55Q810.26 179.83 810.71 179.41Q811.17 178.99 811.96 178.99Q812.75 178.99 813.21 179.41Q813.66 179.83 813.66 180.55Q813.66 181.25 813.21 181.66Q812.75 182.06 811.96 182.06" fill="white" fill-opacity="0.7"/>
<path d="M824.85 197.88Q822.81 197.88 821.61 196.74Q820.41 195.60 820.41 193.75Q820.41 192.53 820.96 191.62Q821.51 190.70 822.50 190.19Q823.48 189.67 824.75 189.67L828.83 189.67L828.83 188.64Q828.83 186.07 826.02 186.07Q824.78 186.07 824.01 186.53Q823.24 186.98 823.19 187.80L821.03 187.80Q821.15 186.24 822.48 185.22Q823.82 184.20 826.02 184.20Q828.42 184.20 829.71 185.35Q830.99 186.50 830.99 188.57L830.99 197.64L828.86 197.64L828.86 195.24L828.81 195.24Q828.62 196.46 827.58 197.17Q826.55 197.88 824.85 197.88M825.38 196.06Q826.96 196.06 827.90 195.29Q828.83 194.52 828.83 193.20L828.83 191.35L824.99 191.35Q823.94 191.35 823.28 191.99Q822.62 192.62 822.62 193.68Q822.62 194.78 823.35 195.42Q824.08 196.06 825.38 196.06" fill="white" fill-opacity="0.7"/>
<path d="M854.34 197.64L849.81 197.64L849.81 180.12L854.34 180.12Q856.05 180.12 857.28 180.77Q858.52 181.42 859.20 182.59Q859.89 183.77 859.89 185.38L859.89 192.36Q859.89 193.97 859.20 195.16Q858.52 196.34 857.28 196.99Q856.05 197.64 854.34 197.64M851.97 182.04L851.97 195.72L854.34 195.72Q855.93 195.72 856.83 194.83Q857.73 193.94 857.73 192.36L857.73 185.38Q857.73 183.82 856.83 182.93Q855.93 182.04 854.34 182.04" fill="white" fill-opacity="0.7"/>
<path d="M875.32 197.64L864.04 197.64L864.04 195.67L868.72 195.67L868.72 186.41L864.52 186.41L864.52 184.44L870.88 184.44L870.88 195.67L875.32 195.67L875.32 197.64M869.56 182.06Q868.77 182.06 868.31 181.66Q867.86 181.25 867.86 180.55Q867.86 179.83 868.31 179.41Q868.77 178.99 869.56 178.99Q870.35 178.99 870.81 179.41Q871.26 179.83 871.26 180.55Q871.26 181.25 870.81 181.66Q870.35 182.06 869.56 182.06" fill="white" fill-opacity="0.7"/>
<path d="M883.96 201.96L880.26 201.96L880.26 199.99L883.98 199.99Q885.11 199.99 885.76 199.36Q886.41 198.72 886.41 197.64L886.41 196.44L886.46 194.28L886.38 194.28Q886.19 195.46 885.26 196.09Q884.32 196.73 882.90 196.73Q880.86 196.73 879.69 195.43Q878.51 194.14 878.51 191.88L878.51 189.10Q878.51 186.84 879.69 185.52Q880.86 184.20 882.90 184.20Q884.32 184.20 885.26 184.87Q886.19 185.54 886.38 186.72L886.43 186.72L886.43 184.44L888.57 184.44L888.57 197.64Q888.57 199.63 887.33 200.80Q886.10 201.96 883.96 201.96M883.55 194.93Q884.90 194.93 885.66 194.09Q886.43 193.25 886.43 191.76L886.43 189.24Q886.43 187.75 885.66 186.91Q884.90 186.07 883.55 186.07Q882.18 186.07 881.43 186.86Q880.67 187.66 880.67 189L880.67 192Q880.67 193.34 881.43 194.14Q882.18 194.93 883.55 194.93" fill="white" fill-opacity="0.7"/>
<path d="M904.12 197.64L892.84 197.64L892.84 195.67L897.52 195.67L897.52 186.41L893.32 186.41L893.32 184.44L899.68 184.44L899.68 195.67L904.12 195.67L904.12 197.64M898.36 182.06Q897.57 182.06 897.11 181.66Q896.66 181.25 896.66 180.55Q896.66 179.83 897.11 179.41Q897.57 178.99 898.36 178.99Q899.15 178.99 899.61 179.41Q900.06 179.83 900.06 180.55Q900.06 181.25 899.61 181.66Q899.15 182.06 898.36 182.06" fill="white" fill-opacity="0.7"/>
<path d="M918.40 197.64L908.32 197.64L908.32 180.12L910.48 180.12L910.48 195.67L918.40 195.67" fill="white" fill-opacity="0.7"/>
<path d="M926.80 197.83Q924.42 197.83 923.02 196.44Q921.62 195.05 921.62 192.55L921.62 189.53Q921.62 187.01 923.01 185.63Q924.40 184.25 926.80 184.25Q929.20 184.25 930.59 185.63Q931.98 187.01 931.98 189.53L931.98 192.55Q931.98 195.05 930.58 196.44Q929.18 197.83 926.80 197.83M926.80 195.91Q928.22 195.91 929.02 195.12Q929.82 194.33 929.82 192.79L929.82 189.29Q929.82 187.75 929.02 186.96Q928.22 186.17 926.80 186.17Q925.41 186.17 924.59 186.96Q923.78 187.75 923.78 189.29L923.78 192.79Q923.78 194.33 924.59 195.12Q925.41 195.91 926.80 195.91" fill="white" fill-opacity="0.7"/>
<path d="M941.39 197.88Q938.99 197.88 937.55 196.54Q936.11 195.19 936.11 192.84L936.11 189.24Q936.11 186.89 937.55 185.54Q938.99 184.20 941.39 184.20Q943.67 184.20 945.08 185.42Q946.48 186.65 946.55 188.76L944.39 188.76Q944.32 187.49 943.53 186.80Q942.74 186.12 941.39 186.12Q939.98 186.12 939.12 186.92Q938.27 187.73 938.27 189.22L938.27 192.84Q938.27 194.33 939.12 195.14Q939.98 195.96 941.39 195.96Q942.74 195.96 943.53 195.26Q944.32 194.57 944.39 193.32L946.55 193.32Q946.48 195.43 945.08 196.66Q943.67 197.88 941.39 197.88" fill="white" fill-opacity="0.7"/>
<path d="M952.89 197.64L950.73 197.64L950.73 180.12L952.89 180.12L952.89 189.89L955.41 189.89L959.10 184.44L961.58 184.44L957.33 190.73L961.82 197.64L959.30 197.64L955.46 191.76L952.89 191.76" fill="white" fill-opacity="0.7"/>
<path d="M970 197.88Q967.67 197.88 966.24 196.48Q964.82 195.07 964.82 192.60L964.82 189.48Q964.82 187.01 966.24 185.60Q967.67 184.20 970 184.20Q971.56 184.20 972.72 184.82Q973.89 185.45 974.54 186.58Q975.18 187.70 975.18 189.24L975.18 191.59L966.93 191.59L966.93 192.84Q966.93 194.30 967.77 195.16Q968.61 196.01 970 196.01Q971.20 196.01 971.98 195.54Q972.76 195.07 972.93 194.28L975.09 194.28Q974.87 195.94 973.48 196.91Q972.09 197.88 970 197.88M966.93 189.24L966.93 189.91L973.07 189.91L973.07 189.24Q973.07 187.68 972.27 186.83Q971.46 185.98 970 185.98Q968.54 185.98 967.73 186.83Q966.93 187.68 966.93 189.24" fill="white" fill-opacity="0.7"/>
<path d="M982.05 197.64L979.89 197.64L979.89 184.44L982.05 184.44L982.05 186.96L982.10 186.96Q982.26 185.69 983.18 184.94Q984.09 184.20 985.62 184.20Q987.69 184.20 988.80 185.44Q989.92 186.67 989.92 188.95L989.92 190.08L987.76 190.08L987.76 188.95Q987.76 186.07 984.95 186.07Q983.54 186.07 982.79 186.89Q982.05 187.70 982.05 189.24" fill="white" fill-opacity="0.7"/>
<path d="M998.80 197.88Q997.91 197.88 997.37 197.35Q996.83 196.82 996.83 195.98Q996.83 195.10 997.37 194.54Q997.91 193.99 998.80 193.99Q999.69 193.99 1000.23 194.54Q1000.77 195.10 1000.77 195.98Q1000.77 196.82 1000.23 197.35Q999.69 197.88 998.80 197.88" fill="white" fill-opacity="0.7"/>
<path d="M76.11 136.06L66.42 136.06L84.56 65.98L97.14 65.98L115.18 136.06L105.49 136.06L101.07 117.82L80.53 117.82L76.11 136.06M87.54 88.92L82.45 109.95L99.15 109.95L94.16 89.02Q92.72 83.26 91.86 79.23Q90.99 75.20 90.80 73.76Q90.61 75.20 89.74 79.23Q88.88 83.26 87.54 88.92M137.55 136.06L128.05 136.06L128.05 65.98L150.80 65.98Q157.52 65.98 162.42 68.57Q167.31 71.16 170 75.82Q172.69 80.48 172.69 86.91Q172.69 93.24 170 97.90Q167.31 102.56 162.37 105.15Q157.42 107.74 150.80 107.74L137.55 107.74L137.55 136.06M137.55 74.43L137.55 99.29L150.80 99.29Q156.37 99.29 159.63 95.88Q162.90 92.48 162.90 86.91Q162.90 81.24 159.63 77.84Q156.37 74.43 150.80 74.43L137.55 74.43M225.10 136.06L186.90 136.06L186.90 127.42L201.20 127.42L201.20 74.62L186.90 74.62L186.90 65.98L225.10 65.98L225.10 74.62L210.80 74.62L210.80 127.42L225.10 127.42L225.10 136.06M263.98 137.02Q253.62 137.02 247.47 131.60Q241.33 126.17 241.33 116.67L250.83 116.67Q250.83 122.24 254.38 125.40Q257.94 128.57 263.98 128.57Q269.74 128.57 273.15 125.36Q276.56 122.14 276.56 116.76Q276.56 112.73 274.35 109.71Q272.14 106.68 268.11 105.63L257.74 102.84Q250.93 100.92 246.94 95.88Q242.96 90.84 242.96 83.93Q242.96 78.27 245.50 74Q248.05 69.72 252.66 67.37Q257.26 65.02 263.31 65.02Q269.46 65.02 274.11 67.37Q278.77 69.72 281.36 73.95Q283.95 78.17 283.95 83.74L274.54 83.74Q274.54 79.13 271.42 76.25Q268.30 73.37 263.31 73.37Q258.32 73.37 255.30 76.25Q252.27 79.13 252.27 83.74Q252.27 87.48 254.29 90.03Q256.30 92.57 259.95 93.63L270.61 96.51Q277.81 98.43 281.84 103.85Q285.87 109.28 285.87 116.76Q285.87 122.91 283.18 127.47Q280.50 132.03 275.55 134.52Q270.61 137.02 263.98 137.02M342.51 136.06L301.71 136.06L301.71 65.98L342.51 65.98L342.51 74.52L311.12 74.52L311.12 95.36L339.15 95.36L339.15 103.61L311.12 103.61L311.12 127.52L342.51 127.52L342.51 136.06M383.60 136.06L374.10 136.06L374.10 74.62L355.09 74.62L355.09 65.98L402.51 65.98L402.51 74.62L383.60 74.62L383.60 136.06M436.40 137.02Q426.51 137.02 421.18 131.55Q415.86 126.08 415.86 116.67L415.86 65.98L425.36 65.98L425.36 116.67Q425.36 122.24 428.10 125.40Q430.83 128.57 436.40 128.57Q441.87 128.57 444.70 125.40Q447.54 122.24 447.54 116.67L447.54 65.98L457.04 65.98L457.04 116.67Q457.04 126.17 451.71 131.60Q446.38 137.02 436.40 137.02M551.98 137.02Q542.29 137.02 536.58 131.60Q530.86 126.17 530.86 116.67L530.86 85.28Q530.86 75.87 536.58 70.44Q542.29 65.02 551.98 65.02Q561.58 65.02 567.30 70.49Q573.01 75.96 573.01 85.28L563.50 85.28Q563.50 79.61 560.43 76.54Q557.36 73.47 551.98 73.47Q546.51 73.47 543.44 76.54Q540.37 79.61 540.37 85.28L540.37 116.67Q540.37 122.43 543.44 125.50Q546.51 128.57 551.98 128.57Q557.36 128.57 560.43 125.50Q563.50 122.43 563.50 116.67L563.50 107.55L549.87 107.55L549.87 99.10L573.01 99.10L573.01 116.67Q573.01 126.08 567.30 131.55Q561.58 137.02 551.98 137.02M609.20 137.02Q599.60 137.02 594.03 131.45Q588.46 125.88 588.46 115.71L588.46 86.24Q588.46 76.16 594.03 70.59Q599.60 65.02 609.20 65.02Q618.80 65.02 624.37 70.54Q629.94 76.06 629.94 86.24L629.94 115.71Q629.94 125.88 624.37 131.45Q618.80 137.02 609.20 137.02M609.20 128.57Q614.58 128.57 617.50 125.50Q620.43 122.43 620.43 116.67L620.43 85.28Q620.43 79.61 617.55 76.54Q614.67 73.47 609.20 73.47Q603.73 73.47 600.85 76.54Q597.97 79.61 597.97 85.28L597.97 116.67Q597.97 122.43 600.90 125.50Q603.82 128.57 609.20 128.57M673.14 136.06L660.37 136.06L642.42 65.98L652.21 65.98L663.82 113.21Q664.98 117.72 665.79 121.90Q666.61 126.08 666.99 128.28Q667.28 126.08 668.19 121.85Q669.10 117.63 670.16 113.12L681.39 65.98L691.18 65.98L673.14 136.06M771.15 136.06L761.65 136.06L761.65 65.98L771.15 65.98L771.15 95.74L780.94 95.74L795.92 65.98L806.29 65.98L789.30 99.68L807.15 136.06L796.40 136.06L780.75 104.09L771.15 104.09L771.15 136.06M844.40 136.06L834.90 136.06L834.90 74.62L815.89 74.62L815.89 65.98L863.31 65.98L863.31 74.62L844.40 74.62L844.40 136.06M918.51 136.06L877.71 136.06L877.71 65.98L918.51 65.98L918.51 74.52L887.12 74.52L887.12 95.36L915.15 95.36L915.15 103.61L887.12 103.61L887.12 127.52L918.51 127.52L918.51 136.06M955.57 137.02Q945.87 137.02 940.16 131.60Q934.45 126.17 934.45 116.67L934.45 85.28Q934.45 75.87 940.16 70.44Q945.87 65.02 955.57 65.02Q965.17 65.02 970.88 70.49Q976.59 75.96 976.59 85.28L967.09 85.28Q967.09 79.61 964.02 76.54Q960.94 73.47 955.57 73.47Q950.10 73.47 947.02 76.54Q943.95 79.61 943.95 85.28L943.95 116.67Q943.95 122.43 947.02 125.50Q950.10 128.57 955.57 128.57Q960.94 128.57 964.02 125.50Q967.09 122.43 967.09 116.67L976.59 116.67Q976.59 126.08 970.88 131.55Q965.17 137.02 955.57 137.02M1001.65 136.06L992.14 136.06L992.14 65.98L1001.65 65.98L1001.65 95.55L1023.15 95.55L1023.15 65.98L1032.66 65.98L1032.66 136.06L1023.15 136.06L1023.15 104.19L1001.65 104.19" fill="url(#paint2_linear_0_1)"/>
<g id="Group 1">
<rect id="Rectangle 1" x="26" y="168" width="12" height="184" rx="5" fill="url(#paint3_linear_0_1)" fill-opacity="0.9"/>
</g>
<g id="Group 1_2">
<rect id="Rectangle 2" x="26" y="38" width="12" height="119" rx="5" fill="url(#paint4_linear_0_1)" fill-opacity="0.9"/>
</g>
<ellipse id="Ellipse 1" cx="148.5" cy="573" rx="215.5" ry="214" fill="url(#paint5_linear_0_1)" fill-opacity="0.4"/>
<rect id="Rectangle 3" x="1229" y="48" width="300" height="300" rx="25" fill="#FFFBFB" fill-opacity="0.9"/>
<g id="placeholder-logo"><g transform="translate(1229,48) translate(0.0,60.0) scale(1.2000)"><g fill="#666666">
  <path d="m88.05,27.65c-3.15,4 -3.2,51.2 -0.05,54.35c2.75,2.75 71.7,3.15 74.45,0.45c2.85,-2.9 2.3,-53.85 -0.65,-55.9c-1.95,-1.35 -7.15,-1.55 -36.95,-1.55l-34.7,0l-2.1,2.65zm69.45,3.35c0.65,0 1,8.6 1,23.75l0,23.75l-33,0l-33,0l-0.25,-23c-0.15,-12.6 -0.1,-23.45 0.15,-24.1c0.35,-0.85 8.9,-1.05 32.25,-0.75c17.55,0.2 32.3,0.35 32.85,0.35z"/>
  <path d="m99.15,37.3c-6.85,7.35 4.25,17.35 11.4,10.25c1.35,-1.35 2.45,-3.65 2.45,-5.05c0,-6.45 -9.35,-9.95 -13.85,-5.2z"/>
  <path d="m135,42.5c-0.7,0.85 -5.25,5.15 -10.1,9.6l-8.85,8.1l-3.2,-3.2l-3.15,-3.15l-6.35,6.3c-5.55,5.5 -6.35,6.75 -6.35,10.05l0,3.8l28.5,0l28.5,0l0,-8.6l0,-8.55l-8.15,-7.7c-9.35,-8.85 -9.15,-8.7 -10.85,-6.65zm7.25,15.2c0.95,0.9 1.75,2.9 1.75,4.45c6.35,-5.05 4.75,-7.15 4.9,-11.55c0.95,0 0,0 0,0l-6.65,7.1z"/>
  <path d="m53.65,110.75c0.1,4.8 0.45,8.65 0.75,8.5c0.35,-0.15 1.3,-0.25 2.1,-0.25c1.1,0 1.5,-1.2 1.5,-4.75l0,-4.75l3.25,5c4.9,7.5 6.2,6.75 6.55,-3.75c0.25,-8.15 0.15,-8.75 -1.7,-8.75c-1.65,0 -2.05,0.8 -2.3,4.75l-0.3,4.75l-2.8,-4.75c-4.85,-8.25 -7.25,-6.9 -7.05,4z"/>
  <path d="m91,108.9c0,9.65 0.3,10.1 6.1,10.1c5.8,0 7.15,-2.65 1.65,-3.2l-3.25,-0.3l-0.3,-6.75c-0.25,-5.95 -0.55,-6.75 -2.25,-6.75c-1.75,0 -1.95,0.7 -1.95,6.9z"/>
  <path d="m151,102.45c0,0.25 1,2.15 2.25,4.2c1.2,2.1 2.45,5.8 2.75,8.25c0.65,5.9 4,6.95 4,1.25c0.05,-2.1 1.25,-5.85 2.95,-8.9l2.9,-5.25l-2.5,0c-1.8,0 -2.8,0.85 -3.75,3.1l-1.3,3.05l-1.25,-3.05c-1.1,-2.6 -6.05,-4.8 -6.05,-2.65z"/>
  <path d="m191,107.45c0,9.05 3.4,8.85 4.25,-0.2c0.45,-5 0.35,-5.25 -1.9,-5.25c-2.2,0 -2.35,0.4 -2.35,5.45z"/>
  <path d="m180.8,104.75c-1.3,5.35 0.65,13.6 3.45,14.35c2.3,0.6 2.75,0.4 2.75,-1.2c0,-1.05 -0.45,-1.9 -1,-1.9c-0.55,0 -1,-1.6 -1,-3.5c0,-1.95 0.45,-3.5 1,-3.5c0.55,0 1,-0.7 1,-1.5c0,-0.85 -0.45,-1.5 -1,-1.5c-0.55,0 -1,-0.7 -1,-1.5c0,-2.1 -3.65,-1.9 -4.2,0.25z"/>
  <path d="m71.55,106.55c-2.2,2.25 -2.05,9.7 0.3,11.8c4.5,4.1 10.15,0.75 10.15,-6.1c0,-4.85 -2,-7.25 -6,-7.25c-1.55,0 -3.55,0.7 -4.45,1.55zm6.25,5.8c0.25,3.05 0,3.65 -1.6,3.65c-2.3,0 -3.25,-2.65 -2.05,-5.85c1.25,-3.35 3.3,-2.1 3.65,2.2z"/>
  <path d="m105.75,106.1c-2.5,1.45 -2.45,9.95 0.1,12.25c4.3,3.9 10.15,0.35 10.15,-6.2c0,-6 -5.15,-9.05 -10.25,-6.05zm6.05,6.25c0.25,3.05 0,3.65 -1.6,3.65c-2.3,0 -3.25,-2.65 -2.05,-5.85c1.25,-3.35 3.3,-2.1 3.65,2.2z"/>
  <path d="m119.2,106.2c-3.8,3.8 -0.4,12.55 4.4,11.35c1.9,-0.45 2.45,-0.3 2.15,0.65c-0.25,0.7 -1.55,1.2 -2.85,1.1c-4.05,-0.3 -5.35,0.45 -3.85,2.25c0.85,1.05 2.6,1.45 5.35,1.25l4.1,-0.3l0.3,-8.75l0.3,-8.75l-4.35,0c-2.4,0 -4.9,0.55 -5.55,1.2zm6.6,4.45c0.4,2.85 -2.15,4.85 -3.75,2.95c-0.9,-1.1 -0.9,-2 -0.05,-3.6c1.35,-2.5 3.4,-2.15 3.8,0.65z"/>
  <path d="m133.55,106.55c-2.2,2.25 -2.05,9.7 0.3,11.8c4.5,4.1 10.15,0.75 10.15,-6.1c0,-4.85 -2,-7.25 -6,-7.25c-1.55,0 -3.55,0.7 -4.45,1.55zm6.25,5.8c0.25,3.05 0,3.65 -1.6,3.65c-2.3,0 -3.25,-2.65 -2.05,-5.85c1.25,-3.35 3.3,-2.1 3.65,2.2z"/>
  <path d="m167.65,106.85c-3.9,4.3 -0.75,13.15 4.7,13.15c2.4,0 5.65,-2.75 5.65,-4.85c0,-1.4 -2.65,-1.55 -3.5,-0.15c-0.95,1.55 -4.5,1.15 -4.5,-0.5c0,-1.1 1.1,-1.5 4,-1.5c3.15,0 4,-0.35 4,-1.8c0,-5.3 -6.85,-8.25 -10.35,-4.35z"/>
  <path d="m191,117.5c0,2.15 0.4,2.6 2.25,2.3c1.5,-0.2 2.25,-1 2.25,-2.3c0,-1.3 -0.75,-2.1 -2.25,-2.3c-1.85,-0.3 -2.25,0.15 -2.25,2.3z"/>
 </g></g></g>
</g>
<defs>
<linearGradient id="paint0_linear_0_1" x1="0" y1="198" x2="1584" y2="198" gradientUnits="userSpaceOnUse">
<stop stop-color="#3D052C"/>
<stop offset="1"/>
</linearGradient>
<linearGradient id="paint1_linear_0_1" x1="323" y1="-224" x2="323" y2="352" gradientUnits="userSpaceOnUse">
<stop stop-color="#28F6F2" stop-opacity="0.4"/>
<stop offset="1" stop-color="#17908E" stop-opacity="0.7"/>
</linearGradient>
<linearGradient id="paint2_linear_0_1" x1="148.5" y1="38" x2="148.5" y2="140" gradientUnits="userSpaceOnUse">
<stop stop-color="white"/>
<stop offset="1" stop-color="#999999"/>
</linearGradient>
<linearGradient id="paint3_linear_0_1" x1="38" y1="260" x2="26" y2="260" gradientUnits="userSpaceOnUse">
<stop stop-color="#D9D9D9"/>
<stop offset="1" stop-color="#737373"/>
</linearGradient>
<linearGradient id="paint4_linear_0_1" x1="38" y1="97.5" x2="26" y2="97.5" gradientUnits="userSpaceOnUse">
<stop stop-color="#D9D9D9"/>
<stop offset="1" stop-color="#737373"/>
</linearGradient>
<linearGradient id="paint5_linear_0_1" x1="27.5" y1="434.5" x2="148.5" y2="787" gradientUnits="userSpaceOnUse">
<stop stop-color="#2E21BC"/>
<stop offset="1" stop-color="#150F56"/>
</linearGradient>
<clipPath id="clip0_0_1">
<rect width="1584" height="396" fill="white"/>
</clipPath>
</defs>
</svg>
